<svg width="241" height="50" viewBox="0 0 241 50" fill="none" xmlns="http://www.w3.org/2000/svg">
<g id="Group 11">
<path id="Vector" d="M0 3.64782C0.0022671 3.2866 0.147352 2.94095 0.403578 2.68634C0.659805 2.43172 1.00636 2.28881 1.36759 2.28882H5.47035C5.83305 2.28882 6.1809 2.4329 6.43737 2.68937C6.69385 2.94585 6.83793 3.2937 6.83793 3.6564V28.2615C6.83793 28.6242 6.98202 28.9721 7.23849 29.2285C7.49496 29.485 7.84281 29.6291 8.20552 29.6291H25.987C26.3497 29.6291 26.6976 29.485 26.954 29.2285C27.2105 28.9721 27.3546 28.6242 27.3546 28.2615V24.1645C27.3546 23.8018 27.2105 23.4539 26.954 23.1974C26.6976 22.941 26.3497 22.7969 25.987 22.7969H17.7815C16.6934 22.7969 15.6498 22.3646 14.8804 21.5952C14.111 20.8258 13.6787 19.7822 13.6787 18.6941V6.39158C13.6787 5.30346 14.111 4.25991 14.8804 3.49049C15.6498 2.72108 16.6934 2.28882 17.7815 2.28882H30.084C31.1722 2.28882 32.2157 2.72108 32.9851 3.49049C33.7545 4.25991 34.1868 5.30346 34.1868 6.39158V32.3786C34.1868 33.4667 33.7545 34.5103 32.9851 35.2797C32.2157 36.0491 31.1722 36.4813 30.084 36.4813H4.10276C3.01464 36.4813 1.97109 36.0491 1.20167 35.2797C0.432254 34.5103 0 33.4667 0 32.3786V3.64782ZM27.3546 10.4858C27.3546 10.123 27.2105 9.77519 26.954 9.51872C26.6976 9.26225 26.3497 9.11816 25.987 9.11816H20.5167V14.5914C20.5167 14.9541 20.6607 15.3019 20.9172 15.5584C21.1737 15.8149 21.5215 15.959 21.8842 15.959H27.3546V10.4858Z" fill="#A6A6A6"/>
<path id="Vector_2" d="M49 0V38.0235H55.5804V0H49ZM87.9791 26.9855C89.0119 15.9418 83.4014 10.3914 74.4348 10.3914C65.7315 10.3914 60.1839 16.2651 60.1839 24.4249C60.1839 33.008 65.6771 38.7302 74.9241 38.7302C79.0039 38.7302 83.6274 37.3168 86.457 34.3785L82.214 30.1899C80.6919 31.7663 77.4818 32.6933 75.0328 32.6933C70.3549 32.6933 67.471 30.2986 67.0361 26.9712L87.9791 26.9855ZM67.1448 21.4923C68.1233 18.0104 71.0616 16.2708 74.6523 16.2708C78.4603 16.2708 81.1783 18.0104 81.6161 21.4923H67.1448ZM119.474 38.0263V23.9385C119.474 15.5069 114.415 10.7776 108.104 10.7776C104.731 10.7776 102.013 12.1366 99.2917 14.8031L98.8597 11.1581H92.9287V38.0292H99.5091V24.319C99.5091 20.2391 102.284 16.8116 106.376 16.8116C110.619 16.8116 112.85 19.913 112.85 23.9928V38.0263H119.474ZM138.176 16.7572C142.365 16.7572 145.956 19.9044 145.956 24.5908C145.956 29.4317 142.365 32.4787 138.176 32.4787C133.933 32.4787 130.56 29.2686 130.56 24.5908C130.563 19.7413 133.936 16.7572 138.176 16.7572ZM146.393 0V14.8518C144.817 12.0765 140.411 10.5602 137.581 10.5602C129.748 10.5602 123.928 15.3467 123.928 24.5937C123.928 33.4057 129.856 38.6272 137.744 38.6272C141.009 38.6272 144.325 37.54 146.393 34.3356L146.828 38.0349H153.031V0H146.393ZM180.019 13.9849C176.918 11.264 173.765 10.4486 169.574 10.4486C164.678 10.4486 158.258 12.6258 158.258 18.8258C158.258 24.917 164.298 26.7681 169.356 27.1486C173.164 27.366 174.686 28.1271 174.686 29.9782C174.686 31.9351 172.346 33.2426 169.845 33.1883C166.853 33.1339 162.501 31.5575 160.598 29.4346L157.345 34.1639C161.262 38.2438 165.505 38.9505 169.748 38.9505C177.419 38.9505 181.281 34.8706 181.281 30.1384C181.281 23.0115 174.861 21.8699 169.802 21.5552C166.369 21.3378 164.798 20.3593 164.798 18.6169C164.798 16.9317 166.538 15.9504 169.694 15.9504C172.252 15.9504 174.426 16.5484 176.329 18.3451L180.019 13.9849ZM198.47 32.2613C193.956 32.2613 190.854 28.828 190.854 24.6452C190.854 20.4623 193.684 17.029 198.47 17.029C203.257 17.029 206.086 20.4623 206.086 24.6452C206.086 28.828 202.985 32.2613 198.47 32.2613ZM213.322 49.2331V11.2096H207.128L206.693 14.909C204.627 11.9163 201.037 10.6174 197.99 10.6174C189.721 10.6174 184.228 16.7629 184.228 24.6509C184.228 32.4845 189.178 38.6844 197.772 38.6844C200.602 38.6844 204.79 37.8261 206.693 34.8763V49.236L213.322 49.2331ZM219.144 11.2096V38.0263H225.782V23.8841C225.782 18.9345 228.992 17.0834 232.474 17.0834C234.651 17.0834 235.907 17.6813 237.261 18.8229L240.253 13.0579C238.785 11.5902 236.119 10.5001 233.344 10.5001C230.623 10.5001 227.851 10.9893 225.782 14.3082L225.293 11.2068L219.144 11.2096Z" fill="#A6A6A6"/>
</g>
</svg>
