<svg width="243" height="52" viewBox="0 0 243 52" fill="none" xmlns="http://www.w3.org/2000/svg">
<g id="Layer 2">
<g id="Layer 1">
<g id="Layer 2_2">
<g id="Layer 1-2">
<path id="Vector" d="M69.362 31.894C69.362 28.1146 68.2413 24.4199 66.1415 21.2774C64.0417 18.1349 61.0572 15.6856 57.5654 14.2392C54.0737 12.7929 50.2314 12.4145 46.5245 13.1518C42.8176 13.8891 39.4127 15.7091 36.7402 18.3816C34.0677 21.0541 32.2477 24.4591 31.5103 28.166C30.773 31.8728 31.1514 35.7151 32.5978 39.2069C34.0441 42.6987 36.4934 45.6832 39.636 47.783C42.7785 49.8827 46.4731 51.0035 50.2526 51.0035C52.7621 51.0035 55.247 50.5092 57.5654 49.5489C59.8839 48.5885 61.9905 47.1809 63.765 45.4064C65.5395 43.632 66.9471 41.5254 67.9074 39.2069C68.8677 36.8884 69.362 34.4035 69.362 31.894Z" fill="#A6A6A6"/>
<path id="Vector_2" d="M183.994 31.894C183.994 28.1146 182.873 24.4199 180.773 21.2774C178.673 18.1349 175.689 15.6856 172.197 14.2392C168.705 12.7929 164.863 12.4145 161.156 13.1518C157.449 13.8891 154.044 15.7091 151.372 18.3816C148.699 21.0541 146.879 24.4591 146.142 28.166C145.405 31.8728 145.783 35.7151 147.229 39.2069C148.676 42.6987 151.125 45.6832 154.268 47.783C157.41 49.8827 161.105 51.0035 164.884 51.0035C169.95 50.9969 174.807 48.9815 178.389 45.3992C181.972 41.8169 183.987 36.9602 183.994 31.894Z" fill="#A6A6A6"/>
<path id="Vector_3" d="M28.1534 44.3261C28.8954 42.6579 29.253 40.8443 29.1998 39.0193V38.8947C29.2471 37.3959 28.9036 35.9105 28.2032 34.5845C27.58 33.4249 26.7332 32.4003 25.7118 31.5698C24.6429 30.7266 23.4707 30.0233 22.2237 29.477C20.978 28.9289 19.7323 28.4306 18.4118 28.0071L15.6214 27.0354C14.8279 26.7547 14.0539 26.4217 13.3043 26.0388C12.6844 25.7668 12.1124 25.3966 11.6102 24.9426C11.4229 24.7772 11.2728 24.574 11.1697 24.3464C11.0667 24.1188 11.013 23.872 11.0122 23.6221V23.4726C11.012 23.1156 11.0979 22.7639 11.2627 22.4472C11.4276 22.1306 11.6664 21.8584 11.959 21.6539C12.7971 21.1206 13.783 20.8675 14.7743 20.9313C16.3131 20.9816 17.8311 21.302 19.2589 21.8781C21.0839 22.5456 22.8437 23.3796 24.5159 24.3695L28.4025 17.1693C26.4041 15.8253 24.2224 14.7764 21.9248 14.0549C19.6716 13.3217 17.3181 12.9435 14.9487 12.9338C13.2597 12.9324 11.5801 13.1844 9.9658 13.6812C8.43467 14.1354 7.0168 14.908 5.80508 15.9484C4.56688 16.9374 3.5629 18.1881 2.86517 19.6109C2.14797 21.1726 1.79038 22.8754 1.81876 24.5938V24.7183C1.76275 26.2789 2.09671 27.8288 2.79043 29.2279C3.406 30.421 4.25294 31.4797 5.28188 32.3422C6.32073 33.2087 7.48937 33.9066 8.74499 34.4101C9.95491 34.924 11.1946 35.365 12.4573 35.7306L15.2726 36.6275C16.1197 36.8766 16.9419 37.1507 17.764 37.4746C18.38 37.7148 18.9398 38.0795 19.4084 38.5459C19.7427 38.9145 19.9291 39.3937 19.9316 39.8913C19.941 40.2851 19.8498 40.6747 19.6667 41.0235C19.4836 41.3722 19.2147 41.6686 18.8852 41.8844C17.909 42.4628 16.7773 42.724 15.6463 42.6319C13.7675 42.6051 11.9097 42.2335 10.1651 41.5356C8.05512 40.7324 6.07415 39.6244 4.2853 38.2469L0 45.3227C2.27435 47.1629 4.85506 48.5882 7.62384 49.5332C10.1415 50.4024 12.7836 50.8568 15.447 50.8786C17.2737 50.8866 19.0929 50.6435 20.8534 50.1561C22.444 49.7304 23.9344 48.9937 25.2384 47.9885C26.5059 47.0356 27.5092 45.775 28.1534 44.3261ZM104.99 22.7252H113.286V14.2293H105.015V4.26354H94.7997V14.2293H82.5667V12.7843C82.5667 10.1434 83.8124 8.82289 86.254 8.82289C87.0896 8.82221 87.9235 8.89726 88.7455 9.04712C89.4987 9.22195 90.2395 9.44667 90.9629 9.71981V1.07448C89.9511 0.726091 88.9082 0.475794 87.8486 0.327043C86.4539 0.127388 85.0469 0.0274763 83.638 0.0280688C82.1409 -0.0787803 80.6378 0.120134 79.2201 0.612703C77.8023 1.10527 76.4996 1.88119 75.3913 2.89324C73.2969 5.38289 72.2596 8.5931 72.5012 11.8375V50.181H82.7162V22.775H94.9492V38.4462C94.6866 41.6688 95.6872 44.8673 97.7396 47.3656C98.8517 48.3796 100.159 49.1566 101.581 49.6491C103.003 50.1417 104.51 50.3396 106.011 50.2308C107.39 50.2312 108.766 50.1061 110.122 49.8571C111.19 49.7084 112.241 49.4581 113.261 49.1097V40.5391C112.489 40.8131 111.742 41.0124 111.044 41.1868C110.225 41.3612 109.389 41.4365 108.553 41.4111C106.061 41.4111 104.84 40.0906 104.84 37.4497V27.733L104.99 22.7252ZM142.013 24.9426C142.88 22.1576 144.238 19.5503 146.024 17.244C143.238 14.9054 139.841 13.4107 136.235 12.9355C132.628 12.4604 128.961 13.0246 125.664 14.5618C122.367 16.099 119.577 18.5453 117.623 21.6133C115.668 24.6813 114.63 28.2435 114.63 31.8813C114.63 35.519 115.668 39.0812 117.623 42.1492C119.577 45.2172 122.367 47.6636 125.664 49.2008C128.961 50.7379 132.628 51.3021 136.235 50.827C139.841 50.3519 143.238 48.8572 146.024 46.5185C144.236 44.223 142.877 41.6234 142.013 38.8449C140.995 39.8671 139.782 40.6757 138.448 41.2233C137.113 41.771 135.682 42.0465 134.239 42.0339C132.875 42.0671 131.517 41.831 130.244 41.3392C128.971 40.8475 127.807 40.1097 126.819 39.168C125.831 38.2263 125.038 37.0992 124.486 35.8511C123.934 34.6029 123.633 33.2582 123.601 31.8937C123.673 29.1402 124.832 26.5273 126.826 24.6269C128.82 22.7264 131.486 21.6933 134.239 21.7535C135.681 21.7478 137.11 22.0265 138.444 22.5738C139.778 23.121 140.99 23.926 142.013 24.9426ZM242.044 50.181V26.288C242.295 22.6763 241.143 19.1072 238.83 16.3222C237.665 15.152 236.267 14.241 234.725 13.6485C233.184 13.056 231.535 12.7955 229.886 12.884C227.605 12.8388 225.347 13.352 223.309 14.3788C221.288 15.4738 219.508 16.9652 218.077 18.7638C217.199 16.9545 215.814 15.4396 214.09 14.4037C212.21 13.3608 210.086 12.8363 207.936 12.884C206.747 12.8748 205.563 13.0428 204.424 13.3822C203.411 13.6748 202.447 14.1111 201.558 14.6778C200.731 15.2384 199.956 15.8721 199.241 16.5713C198.569 17.2938 197.921 18.0413 197.323 18.8136V13.4819H187.133V50.181H197.323V29.7511C197.181 27.7612 197.765 25.7873 198.967 24.1951C199.538 23.5658 200.24 23.0698 201.023 22.7425C201.807 22.4153 202.653 22.2647 203.502 22.3016C204.337 22.2506 205.173 22.3952 205.943 22.7239C206.713 23.0526 207.395 23.5564 207.936 24.1951C209.07 25.8166 209.615 27.7771 209.481 29.7511V50.181H219.696V29.7511C219.554 27.7612 220.138 25.7873 221.34 24.1951C221.911 23.5658 222.613 23.0698 223.396 22.7425C224.18 22.4153 225.026 22.2647 225.875 22.3016C226.707 22.2506 227.539 22.3953 228.305 22.7242C229.071 23.053 229.749 23.5568 230.285 24.1951C231.43 25.8113 231.976 27.7759 231.83 29.7511V50.181H242.044Z" fill="#A6A6A6"/>
</g>
</g>
</g>
</g>
</svg>
