<svg width="461" height="304" viewBox="0 0 461 304" fill="none" xmlns="http://www.w3.org/2000/svg">
<path opacity="0.2" fill-rule="evenodd" clip-rule="evenodd" d="M1 122.12C3.5 122.12 32 186.6 34.5 186.6C37 186.6 97.5 166 100 166C102.5 166 151.167 114.06 153.667 114.06C156.167 114.06 202.056 222.87 204.556 222.87C207.056 222.87 252.944 190.63 255.444 190.63C257.944 190.63 303.833 126.15 306.333 126.15C308.833 126.15 354.722 186.6 357.222 186.6C359.722 186.6 405.611 130.18 408.111 130.18C410.611 130.18 456.5 2.5 459 2.5V303.47H1V122.12Z" fill="url(#paint0_linear_1_92)"/>
<path d="M1 122.12C3.5 122.12 32 186.6 34.5 186.6C37 186.6 97.5 166 100 166C102.5 166 151.167 114.06 153.667 114.06C156.167 114.06 202.056 222.87 204.556 222.87C207.056 222.87 252.944 190.63 255.444 190.63C257.944 190.63 303.833 126.15 306.333 126.15C308.833 126.15 354.722 186.6 357.222 186.6C359.722 186.6 405.611 130.18 408.111 130.18C410.611 130.18 457.5 1 460 1" stroke="#FF316F" stroke-width="2" stroke-linejoin="round"/>
<defs>
<linearGradient id="paint0_linear_1_92" x1="230" y1="165.5" x2="230" y2="303.47" gradientUnits="userSpaceOnUse">
<stop stop-color="#595656"/>
<stop offset="1" stop-color="#0E9CFF" stop-opacity="0"/>
</linearGradient>
</defs>
</svg>
