<svg width="227" height="40" viewBox="0 0 227 40" fill="none" xmlns="http://www.w3.org/2000/svg">
<path id="Vector" fill-rule="evenodd" clip-rule="evenodd" d="M11.1608 39.1692C8.92867 39.1692 6.78523 38.6997 4.73007 37.7608C2.67513 36.8217 1.09829 35.573 0 34.014L4.94266 29.8154C5.68671 30.5594 6.64335 31.2503 7.81258 31.8881C8.98181 32.5259 10.1688 32.8447 11.3734 32.8447C13.8889 32.8447 15.1468 32.136 15.1468 30.7189C15.1468 30.0811 14.8192 29.5584 14.1636 29.151C13.5083 28.7434 12.2945 28.2032 10.5231 27.5301C7.15703 26.3962 4.71228 25.1828 3.18881 23.8895C1.66534 22.5962 0.903496 20.7804 0.903496 18.4419C0.903496 16.0681 1.86892 14.1902 3.8 12.8084C5.73107 11.4266 8.13146 10.7357 11.0014 10.7357C15.1113 10.7357 18.5129 12.2416 21.2056 15.2531L16.2098 19.3454C14.5444 17.822 12.8084 17.0601 11.0014 17.0601C8.87552 17.0601 7.81258 17.6447 7.81258 18.814C7.81258 19.9123 9.58422 20.9045 13.1273 21.7902C14.4028 22.2154 15.4569 22.614 16.2895 22.986C17.1221 23.358 18.0346 23.8895 19.0266 24.5804C20.0186 25.2713 20.7716 26.1304 21.2853 27.158C21.799 28.1856 22.0559 29.3724 22.0559 30.7189C22.0559 33.3762 21.0727 35.4489 19.1063 36.937C17.1399 38.4252 14.4913 39.1692 11.1608 39.1692ZM29.9748 8.76923C28.77 8.76923 27.7251 8.33527 26.8391 7.46713C25.9534 6.59899 25.5105 5.56263 25.5105 4.35804C25.5105 3.15323 25.9444 2.12587 26.8126 1.27552C27.6807 0.425175 28.7346 0 29.9748 0C31.215 0 32.2601 0.416392 33.1105 1.24895C33.9608 2.08151 34.386 3.1181 34.386 4.35804C34.386 5.56285 33.9608 6.59899 33.1105 7.46713C32.2601 8.33527 31.215 8.76923 29.9748 8.76923ZM26.0951 38.5315V11.3734H33.8014V38.5315H26.0951ZM39.1692 38.5315V11.3734H46.8755V13.8182C47.2297 13.1095 47.8675 12.4186 48.7888 11.7454C49.7098 11.0721 50.7908 10.7357 52.0307 10.7357C54.1566 10.7357 55.9458 11.4975 57.3986 13.021L56.3888 20.0364C54.9007 18.7962 53.2885 18.1762 51.5524 18.1762C48.4345 18.1762 46.8755 20.0541 46.8755 23.8098V38.5315H39.1692ZM63.0853 8.76923C61.8805 8.76923 60.8356 8.33527 59.9496 7.46713C59.0639 6.59899 58.621 5.56263 58.621 4.35804C58.621 3.15323 59.0549 2.12587 59.923 1.27552C60.7912 0.425175 61.8451 0 63.0853 0C64.3254 0 65.3706 0.416392 66.2209 1.24895C67.0713 2.08151 67.4965 3.1181 67.4965 4.35804C67.4965 5.56285 67.0713 6.59899 66.2209 7.46713C65.3706 8.33527 64.3254 8.76923 63.0853 8.76923ZM59.2056 38.5315V11.3734H66.9118V38.5315H59.2056ZM88.8083 38.5315V36.0335C87.1076 38.1241 84.6275 39.1692 81.3678 39.1692C80.2695 39.1692 79.2066 39.001 78.179 38.6643C77.1514 38.3276 76.1594 37.7874 75.2028 37.0433C74.2461 36.2993 73.4755 35.2363 72.8909 33.8545C72.3063 32.4727 72.0139 30.8605 72.0139 29.0182V11.3734H79.7202V25.5105C79.7202 27.6717 80.0391 29.2485 80.6769 30.2405C81.3146 31.2325 82.4485 31.7287 84.0783 31.7287C85.708 31.7287 86.9038 31.2325 87.6657 30.2405C88.4275 29.2485 88.8083 27.7071 88.8083 25.6168V11.3734H96.5146V38.5315H88.8083ZM111.13 39.1692C108.898 39.1692 106.754 38.6997 104.699 37.7608C102.644 36.8217 101.067 35.573 99.9692 34.014L104.912 29.8154C105.656 30.5594 106.613 31.2503 107.782 31.8881C108.951 32.5259 110.138 32.8447 111.343 32.8447C113.858 32.8447 115.116 32.136 115.116 30.7189C115.116 30.0811 114.788 29.5584 114.133 29.151C113.477 28.7434 112.264 28.2032 110.492 27.5301C107.126 26.3962 104.681 25.1828 103.158 23.8895C101.635 22.5962 100.873 20.7804 100.873 18.4419C100.873 16.0681 101.838 14.1902 103.769 12.8084C105.7 11.4266 108.101 10.7357 110.971 10.7357C115.08 10.7357 118.482 12.2416 121.175 15.2531L116.179 19.3454C114.514 17.822 112.778 17.0601 110.971 17.0601C108.845 17.0601 107.782 17.6447 107.782 18.814C107.782 19.9123 109.553 20.9045 113.096 21.7902C114.372 22.2154 115.426 22.614 116.259 22.986C117.091 23.358 118.004 23.8895 118.996 24.5804C119.988 25.2713 120.741 26.1304 121.254 27.158C121.768 28.1856 122.025 29.3724 122.025 30.7189C122.025 33.3762 121.042 35.4489 119.075 36.937C117.109 38.4252 114.46 39.1692 111.13 39.1692ZM126.277 38.5315V3.77342L133.983 0.15944V38.5315H126.277ZM154.923 38.5315V36.5119C153.293 38.2835 151.043 39.1692 148.173 39.1692C145.162 39.1692 142.708 38.3986 140.813 36.8573C138.917 35.3161 137.969 33.1105 137.969 30.2405C137.969 27.4413 139.067 25.2891 141.264 23.7832C143.461 22.2773 146.03 21.5245 148.971 21.5245C151.522 21.5245 153.506 21.8433 154.923 22.4811V20.993C154.923 19.7528 154.533 18.8052 153.754 18.1496C152.974 17.4943 151.894 17.1664 150.512 17.1664C147.571 17.1664 144.666 18.1231 141.796 20.0364L139.404 14.1371C142.735 11.8693 146.614 10.7357 151.043 10.7357C158.732 10.7357 162.576 14.2787 162.576 21.365V38.5315H154.923ZM149.661 32.6853C151.575 32.6853 153.329 32.0475 154.923 30.772V28.3273C153.506 27.9021 151.965 27.6895 150.299 27.6895C147.11 27.6895 145.516 28.5576 145.516 30.2937C145.516 31.8881 146.898 32.6853 149.661 32.6853ZM180.061 39.1692C177.794 39.1692 176.129 38.2657 175.066 36.4587V38.5315H167.359V3.61398L175.066 0.15944V13.3399C176.306 11.6036 178.113 10.7357 180.487 10.7357C183.746 10.7357 186.439 12.029 188.565 14.6154C190.691 17.2018 191.754 20.6388 191.754 24.9259C191.754 29.4611 190.709 32.9688 188.618 35.4489C186.528 37.929 183.675 39.1692 180.061 39.1692ZM179.211 31.7287C180.77 31.7287 181.966 31.1262 182.799 29.9217C183.631 28.7169 184.047 27.0517 184.047 24.9259C184.047 22.7646 183.631 21.0993 182.799 19.9301C181.966 18.7608 180.77 18.1762 179.211 18.1762C177.404 18.1762 176.022 18.7608 175.066 19.9301V30.028C175.951 31.1618 177.333 31.7287 179.211 31.7287ZM204.615 39.1692C202.383 39.1692 200.24 38.6997 198.185 37.7608C196.13 36.8217 194.553 35.573 193.454 34.014L198.397 29.8154C199.141 30.5594 200.098 31.2503 201.267 31.8881C202.436 32.5259 203.623 32.8447 204.828 32.8447C207.343 32.8447 208.601 32.136 208.601 30.7189C208.601 30.0811 208.274 29.5584 207.618 29.151C206.963 28.7434 205.749 28.2032 203.978 27.5301C200.611 26.3962 198.167 25.1828 196.643 23.8895C195.12 22.5962 194.358 20.7804 194.358 18.4419C194.358 16.0681 195.323 14.1902 197.254 12.8084C199.186 11.4266 201.586 10.7357 204.456 10.7357C208.566 10.7357 211.967 12.2416 214.66 15.2531L209.664 19.3454C207.999 17.822 206.263 17.0601 204.456 17.0601C202.33 17.0601 201.267 17.6447 201.267 18.814C201.267 19.9123 203.039 20.9045 206.582 21.7902C207.857 22.2154 208.911 22.614 209.744 22.986C210.577 23.358 211.489 23.8895 212.481 24.5804C213.473 25.2713 214.226 26.1304 214.74 27.158C215.253 28.1856 215.51 29.3724 215.51 30.7189C215.51 33.3762 214.527 35.4489 212.561 36.937C210.594 38.4252 207.946 39.1692 204.615 39.1692ZM225.555 37.8405C224.634 38.7262 223.5 39.1692 222.154 39.1692C220.807 39.1692 219.682 38.7262 218.779 37.8405C217.875 36.9548 217.424 35.8565 217.424 34.5454C217.424 33.2346 217.875 32.1185 218.779 31.1972C219.682 30.2761 220.807 29.8154 222.154 29.8154C223.5 29.8154 224.643 30.2759 225.582 31.1972C226.521 32.1182 226.99 33.2346 226.99 34.5454C226.99 35.8563 226.512 36.9548 225.555 37.8405Z" fill="#A6A6A6"/>
</svg>
